<svg xmlns="http://www.w3.org/2000/svg" viewBox="0 0 135.46666 135.46667" height="512" width="512"><g transform="translate(0 -161.533)"><circle r="44.054" cy="207.948" cx="67.733" fill="#006c89"/><path d="M67.733 295.226c-9.382 0-47.337-72.58-42.646-81.55 4.69-8.97 80.602-8.97 85.293 0 4.69 8.97-33.264 81.55-42.647 81.55z" fill="#006c89"/><path d="M98.164 207.395c0 18.258.597 17.224-15.215 26.353-15.814 9.13-14.62 9.13-30.432 0s-15.215-8.095-15.215-26.353c0-18.258-.597-17.225 15.215-26.354 15.812-9.128 14.618-9.128 30.43 0 15.813 9.13 15.216 8.097 15.216 26.355z" fill="#fff"/><text y="205.141" x="62.087" style="line-height:1.25" font-size="10.583" font-family="sans-serif" letter-spacing="0" word-spacing="0" stroke-width=".265"/><text y="203.325" x="62.813" style="line-height:1.25" font-size="10.583" font-family="sans-serif" letter-spacing="0" word-spacing="0" stroke-width=".265"/><path style="-inkscape-font-specification:'Orbitron Bold'" d="M86.783 195.7c0-4.074-3.333-7.355-7.355-7.355h-23.39c-4.074 0-7.355 3.28-7.355 7.355v7.832c0 4.074 3.28 7.355 7.356 7.355h23.388c.16 0 .317.16.317.37v7.832c0 .21-.158.37-.317.37h-23.39c-.21 0-.37-.16-.37-.37v-2.91h-6.985v2.91c0 4.074 3.28 7.355 7.356 7.355h23.388c4.022 0 7.355-3.28 7.355-7.356v-7.832c0-4.075-3.333-7.356-7.355-7.356h-23.39c-.21 0-.37-.158-.37-.37V195.7c0-.21.16-.37.37-.37h23.39c.16 0 .317.16.317.37v2.91h7.038z" font-weight="bold" font-family="Orbitron" font-size="52.917" letter-spacing="0" word-spacing="0" fill="#006c89" stroke-width=".265"/></g></svg>