<svg xmlns="http://www.w3.org/2000/svg" viewBox="0 0 135.46666 135.46667" height="512" width="512"><g transform="translate(0 -161.533)"><circle r="44.054" cy="207.948" cx="67.733" fill="#ec595f"/><path d="M67.733 295.226c-9.382 0-47.337-72.58-42.646-81.55 4.69-8.97 80.602-8.97 85.293 0 4.69 8.97-33.264 81.55-42.647 81.55z" fill="#ec595f"/><path d="M98.164 207.395c0 18.258.597 17.224-15.215 26.353-15.814 9.13-14.62 9.13-30.432 0s-15.215-8.095-15.215-26.353c0-18.258-.597-17.225 15.215-26.354 15.812-9.128 14.618-9.128 30.43 0 15.813 9.13 15.216 8.097 15.216 26.355z" fill="#fff"/><text y="205.141" x="62.087" style="line-height:1.25" font-size="10.583" font-family="sans-serif" letter-spacing="0" word-spacing="0" stroke-width=".265"/><text y="203.325" x="62.813" style="line-height:1.25" font-size="10.583" font-family="sans-serif" letter-spacing="0" word-spacing="0" stroke-width=".265"/><g fill="#ec595f"><path d="M84.785 215.423c-.204-.216-.465-.323-.783-.323H78.49c-.32 0-.58.107-.785.323-.204.216-.306.47-.306.766v6.16H63.31v-12.9h10.38c.295 0 .55-.108.765-.323.216-.216.324-.47.324-.766v-4.458c0-.318-.11-.578-.325-.783-.215-.204-.47-.307-.765-.307H63.31v-7.317c0-1.724.59-3.12 1.77-4.186 1.18-1.067 2.733-1.6 4.66-1.6 1.023 0 2.078.205 3.167.613 1.09.408 1.872.77 2.348 1.09.477.317.772.533.885.646.227.203.488.282.783.237.295-.023.544-.16.748-.41l3.507-4.32c.182-.228.26-.484.238-.767-.023-.284-.136-.516-.34-.698-3.403-2.836-7.204-4.254-11.4-4.254-4.335 0-7.903 1.26-10.705 3.778-2.802 2.518-4.203 5.717-4.203 9.597v7.59h-3.234c-.317 0-.578.102-.782.306-.204.203-.306.464-.306.782v4.458c0 .295.102.55.307.766.205.215.466.323.783.323h3.234v13.034h-3.302c-.295 0-.55.108-.765.323-.216.216-.324.47-.324.766v5.105c0 .318.102.578.307.783.204.205.465.307.782.307h32.537c.318 0 .58-.102.783-.306.204-.204.305-.464.305-.782v-12.49c0-.294-.1-.55-.305-.765z"/></g></g></svg>