<svg xmlns="http://www.w3.org/2000/svg" width="512" height="512" viewBox="0 0 135.46666 135.46667"><g transform="translate(0 -161.533)"><circle r="44.054" cy="207.948" cx="67.733" fill="#1a1a1a"/><path d="M67.733 295.226c-9.382 0-47.337-72.58-42.646-81.55 4.69-8.97 80.602-8.97 85.293 0 4.69 8.97-33.264 81.55-42.647 81.55z" fill="#1a1a1a"/><path d="M98.164 207.395c0 18.258.597 17.224-15.215 26.353-15.814 9.13-14.62 9.13-30.432 0s-15.215-8.095-15.215-26.353c0-18.258-.597-17.225 15.215-26.354 15.812-9.128 14.618-9.128 30.43 0 15.813 9.13 15.216 8.097 15.216 26.355z" fill="#fff"/><text y="205.141" x="62.087" style="line-height:1.25" font-size="10.583" font-family="sans-serif" letter-spacing="0" word-spacing="0" stroke-width=".265"/><text y="203.325" x="62.813" style="line-height:1.25" font-size="10.583" font-family="sans-serif" letter-spacing="0" word-spacing="0" stroke-width=".265"/></g></svg>