<svg xmlns="http://www.w3.org/2000/svg" viewBox="0 0 135.46666 135.46667" height="512" width="512"><g transform="translate(0 -161.533)"><circle cx="67.733" cy="207.948" r="44.054" fill="#f9f9f9"/><path d="M67.733 295.226c-9.382 0-47.337-72.58-42.646-81.55 4.69-8.97 80.602-8.97 85.293 0 4.69 8.97-33.264 81.55-42.647 81.55z" fill="#f9f9f9"/><path d="M98.164 207.395c0 18.258.597 17.224-15.215 26.353-15.814 9.13-14.62 9.13-30.432 0s-15.215-8.095-15.215-26.353c0-18.258-.597-17.225 15.215-26.354 15.812-9.128 14.618-9.128 30.43 0 15.813 9.13 15.216 8.097 15.216 26.355z" fill="#4d4d4d"/><text style="line-height:1.25" x="62.087" y="205.141" font-size="10.583" font-family="sans-serif" letter-spacing="0" word-spacing="0" stroke-width=".265"/><text style="line-height:1.25" x="62.813" y="203.325" font-size="10.583" font-family="sans-serif" letter-spacing="0" word-spacing="0" stroke-width=".265"/><g fill="#f9f9f9"><path d="M47.47 222.337c1.188 1.188 2.62 1.782 4.3 1.782h30.407c1.68 0 3.112-.595 4.3-1.783 1.187-1.187 1.78-2.62 1.78-4.3h-42.57c0 1.68.595 3.113 1.783 4.3zM57.09 214.997h16.725c1.457 0 2.708-.523 3.753-1.568 1.045-1.046 1.568-2.298 1.568-3.755v-.76h1.52c2.518 0 4.67-.89 6.45-2.672 1.78-1.782 2.673-3.932 2.673-6.45 0-2.518-.893-4.668-2.674-6.45-1.78-1.78-3.932-2.672-6.45-2.672H53.29c-.412 0-.768.15-1.07.452-.3.3-.45.657-.45 1.07v17.483c0 1.457.522 2.708 1.567 3.754 1.046 1.044 2.297 1.567 3.754 1.567zm22.046-19.765h1.52c1.268 0 2.345.444 3.23 1.33.888.887 1.33 1.964 1.33 3.23 0 1.268-.442 2.345-1.33 3.232-.885.887-1.962 1.33-3.23 1.33h-1.52z"/></g></g></svg>