<svg xmlns="http://www.w3.org/2000/svg" viewBox="0 0 135.46666 135.46667" height="512" width="512"><g transform="translate(0 -161.533)"><circle cx="67.733" cy="207.948" r="44.054" fill="#ec595f"/><path d="M67.733 295.226c-9.382 0-47.337-72.58-42.646-81.55 4.69-8.97 80.602-8.97 85.293 0 4.69 8.97-33.264 81.55-42.647 81.55z" fill="#ec595f"/><path d="M98.164 207.395c0 18.258.597 17.224-15.215 26.353-15.814 9.13-14.62 9.13-30.432 0s-15.215-8.095-15.215-26.353c0-18.258-.597-17.225 15.215-26.354 15.812-9.128 14.618-9.128 30.43 0 15.813 9.13 15.216 8.097 15.216 26.355z" fill="#fff"/><text style="line-height:1.25" x="62.087" y="205.141" font-size="10.583" font-family="sans-serif" letter-spacing="0" word-spacing="0" stroke-width=".265"/><text style="line-height:1.25" x="62.813" y="203.325" font-size="10.583" font-family="sans-serif" letter-spacing="0" word-spacing="0" stroke-width=".265"/><g fill="#ec595f"><path d="M64.648 185.795c-.418 0-.78.153-1.085.458-.305.306-.458.667-.458 1.085v10.03c0 .416-.153.778-.458 1.083-.306.307-.667.46-1.085.46-.418 0-.78-.153-1.085-.46-.305-.304-.458-.666-.458-1.083v-10.03c0-.417-.154-.778-.46-1.084-.305-.305-.666-.458-1.084-.458-.418 0-.78.153-1.085.458-.304.306-.457.667-.457 1.085v10.03c0 .416-.153.778-.458 1.083-.305.307-.667.46-1.085.46-.418 0-.78-.153-1.085-.46-.305-.304-.458-.666-.458-1.083v-10.03c0-.417-.152-.778-.458-1.084-.306-.305-.667-.458-1.085-.458-.42 0-.78.153-1.085.458-.306.306-.458.667-.458 1.085v15.43c0 .98.285 1.87.855 2.674.57.804 1.314 1.366 2.23 1.688v18.78c0 .835.306 1.557.916 2.168.61.61 1.335.916 2.17.916h3.086c.834 0 1.558-.305 2.168-.916.61-.61.916-1.334.916-2.17v-18.78c.917-.32 1.66-.883 2.23-1.686.57-.803.856-1.695.856-2.676v-15.428c0-.418-.152-.78-.457-1.085-.305-.305-.667-.458-1.085-.458zM84.246 186.253c-.305-.305-.667-.458-1.084-.458h-6.17c-2.123 0-3.94.756-5.45 2.266-1.51 1.512-2.266 3.328-2.266 5.45v19.285c0 .21.077.39.23.542.152.153.333.23.54.23h5.4v12.342c0 .835.307 1.557.918 2.17.61.61 1.334.915 2.17.915h3.085c.835 0 1.558-.306 2.168-.916.61-.613.917-1.335.917-2.17v-38.572c0-.418-.153-.78-.46-1.085z"/></g></g></svg>