<?xml version="1.0" encoding="UTF-8" standalone="no"?>
<svg
   xmlns:dc="http://purl.org/dc/elements/1.1/"
   xmlns:cc="http://creativecommons.org/ns#"
   xmlns:rdf="http://www.w3.org/1999/02/22-rdf-syntax-ns#"
   xmlns:svg="http://www.w3.org/2000/svg"
   xmlns="http://www.w3.org/2000/svg"
   id="svg8"
   version="1.1"
   viewBox="0 0 135.46666 135.46667"
   height="512"
   width="512">
  <defs
     id="defs2" />
  <metadata
     id="metadata5">
    <rdf:RDF>
      <cc:Work
         rdf:about="">
        <dc:format>image/svg+xml</dc:format>
        <dc:type
           rdf:resource="http://purl.org/dc/dcmitype/StillImage" />
        <dc:title></dc:title>
      </cc:Work>
    </rdf:RDF>
  </metadata>
  <g
     transform="translate(0,-161.53331)"
     id="layer1">
    <flowRoot
       transform="scale(0.26458333)"
       style="font-style:normal;font-weight:normal;font-size:40px;line-height:1.25;font-family:sans-serif;letter-spacing:0px;word-spacing:0px;fill:#000000;fill-opacity:1;stroke:none"
       id="flowRoot3750"
       xml:space="preserve"><flowRegion
         id="flowRegion3752"><rect
           y="162.51968"
           x="240"
           height="240"
           width="360"
           id="rect3754" /></flowRegion><flowPara
         id="flowPara3756" /></flowRoot>    <circle
       r="44.054428"
       style="stroke-width:0.5681991;fill:#006c89;fill-opacity:1"
       cy="207.94797"
       cx="67.73333"
       id="path3758" />
    <path
       transform="matrix(1.1791999,0,0,1.3018639,-14.042307,-51.257701)"
       style="stroke-width:0.26458332;fill:#006c89;fill-opacity:1"
       d="m 69.348413,266.14443 c -7.956462,0 -40.143967,-55.75039 -36.165737,-62.64089 3.978231,-6.8905 68.353234,-6.8905 72.331474,0 3.97823,6.89049 -28.209276,62.64089 -36.165737,62.64089 z"
       id="path3764" />
    <path
       transform="matrix(1.3527398,-0.78100465,0.78100465,1.3527398,-185.83043,-20.190331)"
       d="m 84.604857,217.08677 c -5.844469,10.12292 -5.18259,9.74078 -16.871527,9.74078 -11.688937,0 -11.027059,0.38214 -16.871528,-9.74078 -5.844468,-10.12291 -5.844468,-9.35864 1e-6,-19.48156 5.844468,-10.12291 5.18259,-9.74078 16.871527,-9.74078 11.688937,0 11.027059,-0.38213 16.871527,9.74078 5.844469,10.12292 5.844469,9.35865 0,19.48156 z"
       id="path3772"
       style="fill:#ffffff;stroke-width:0.30096641" />
    <text
       id="text27"
       y="205.14056"
       x="62.086796"
       style="font-style:normal;font-weight:normal;font-size:10.58333302px;line-height:1.25;font-family:sans-serif;letter-spacing:0px;word-spacing:0px;fill:#000000;fill-opacity:1;stroke:none;stroke-width:0.26458332"
       xml:space="preserve"><tspan
         style="stroke-width:0.26458332"
         y="214.79607"
         x="62.086796"
         id="tspan25" /></text>
    <text
       id="text31"
       y="203.32516"
       x="62.812958"
       style="font-style:normal;font-weight:normal;font-size:10.58333302px;line-height:1.25;font-family:sans-serif;letter-spacing:0px;word-spacing:0px;fill:#000000;fill-opacity:1;stroke:none;stroke-width:0.26458332"
       xml:space="preserve"><tspan
         style="stroke-width:0.26458332"
         y="212.98067"
         x="62.812958"
         id="tspan29" /></text>
    <g
       id="text6725"
       style="font-style:normal;font-variant:normal;font-weight:normal;font-stretch:normal;font-size:52.91666794px;line-height:1.25;font-family:Calibri;-inkscape-font-specification:Calibri;letter-spacing:0px;word-spacing:0px;fill:#006c89;fill-opacity:1;stroke:none;stroke-width:0.26458332"
       aria-label="S">
      <path
         id="path6727"
         style="font-style:normal;font-variant:normal;font-weight:bold;font-stretch:normal;font-size:52.91666794px;font-family:Orbitron;-inkscape-font-specification:'Orbitron Bold';fill:#006c89;fill-opacity:1;stroke-width:0.26458332"
         d="m 86.783324,195.70021 c 0,-4.07458 -3.33375,-7.35542 -7.355416,-7.35542 H 56.03874 c -4.074583,0 -7.355417,3.28084 -7.355417,7.35542 v 7.83167 c 0,4.07458 3.280834,7.35541 7.355417,7.35541 h 23.389168 c 0.15875,0 0.3175,0.15875 0.3175,0.37042 v 7.83167 c 0,0.21166 -0.15875,0.37041 -0.3175,0.37041 H 56.03874 c -0.211666,0 -0.370416,-0.15875 -0.370416,-0.37041 v -2.91042 h -6.985001 v 2.91042 c 0,4.07458 3.280834,7.35541 7.355417,7.35541 h 23.389168 c 4.021666,0 7.355416,-3.28083 7.355416,-7.35541 v -7.83167 c 0,-4.07458 -3.33375,-7.35542 -7.355416,-7.35542 H 56.03874 c -0.211666,0 -0.370416,-0.15875 -0.370416,-0.37041 v -7.83167 c 0,-0.21167 0.15875,-0.37042 0.370416,-0.37042 h 23.389168 c 0.15875,0 0.3175,0.15875 0.3175,0.37042 v 2.91042 h 7.037916 z" />
    </g>
  </g>
  <g
     id="layer2" />
</svg>
