<?xml version="1.0" encoding="UTF-8" standalone="no"?>
<svg
   xmlns:dc="http://purl.org/dc/elements/1.1/"
   xmlns:cc="http://creativecommons.org/ns#"
   xmlns:rdf="http://www.w3.org/1999/02/22-rdf-syntax-ns#"
   xmlns:svg="http://www.w3.org/2000/svg"
   xmlns="http://www.w3.org/2000/svg"
   id="svg8"
   version="1.1"
   viewBox="0 0 135.46666 135.46667"
   height="512"
   width="512">
  <defs
     id="defs2" />
  <metadata
     id="metadata5">
    <rdf:RDF>
      <cc:Work
         rdf:about="">
        <dc:format>image/svg+xml</dc:format>
        <dc:type
           rdf:resource="http://purl.org/dc/dcmitype/StillImage" />
        <dc:title></dc:title>
      </cc:Work>
    </rdf:RDF>
  </metadata>
  <g
     transform="translate(0,-161.53331)"
     id="layer1">
    <flowRoot
       transform="scale(0.26458333)"
       style="font-style:normal;font-weight:normal;font-size:40px;line-height:1.25;font-family:sans-serif;letter-spacing:0px;word-spacing:0px;fill:#000000;fill-opacity:1;stroke:none"
       id="flowRoot3750"
       xml:space="preserve"><flowRegion
         id="flowRegion3752"><rect
           y="162.51968"
           x="240"
           height="240"
           width="360"
           id="rect3754" /></flowRegion><flowPara
         id="flowPara3756" /></flowRoot>    <circle
       r="44.054428"
       style="stroke-width:0.5681991;fill:#1a1a1a;fill-opacity:1"
       cy="207.94797"
       cx="67.73333"
       id="path3758" />
    <path
       transform="matrix(1.1791999,0,0,1.3018639,-14.042307,-51.257701)"
       style="stroke-width:0.26458332;fill:#1a1a1a;fill-opacity:1"
       d="m 69.348413,266.14443 c -7.956462,0 -40.143967,-55.75039 -36.165737,-62.64089 3.978231,-6.8905 68.353234,-6.8905 72.331474,0 3.97823,6.89049 -28.209276,62.64089 -36.165737,62.64089 z"
       id="path3764" />
    <path
       transform="matrix(1.3527398,-0.78100465,0.78100465,1.3527398,-185.83043,-20.190331)"
       d="m 84.604857,217.08677 c -5.844469,10.12292 -5.18259,9.74078 -16.871527,9.74078 -11.688937,0 -11.027059,0.38214 -16.871528,-9.74078 -5.844468,-10.12291 -5.844468,-9.35864 1e-6,-19.48156 5.844468,-10.12291 5.18259,-9.74078 16.871527,-9.74078 11.688937,0 11.027059,-0.38213 16.871527,9.74078 5.844469,10.12292 5.844469,9.35865 0,19.48156 z"
       id="path3772"
       style="fill:#ffffff;stroke-width:0.30096641" />
    <text
       id="text27"
       y="205.14056"
       x="62.086796"
       style="font-style:normal;font-weight:normal;font-size:10.58333302px;line-height:1.25;font-family:sans-serif;letter-spacing:0px;word-spacing:0px;fill:#000000;fill-opacity:1;stroke:none;stroke-width:0.26458332"
       xml:space="preserve"><tspan
         style="stroke-width:0.26458332"
         y="214.79607"
         x="62.086796"
         id="tspan25" /></text>
    <text
       id="text31"
       y="203.32516"
       x="62.812958"
       style="font-style:normal;font-weight:normal;font-size:10.58333302px;line-height:1.25;font-family:sans-serif;letter-spacing:0px;word-spacing:0px;fill:#000000;fill-opacity:1;stroke:none;stroke-width:0.26458332"
       xml:space="preserve"><tspan
         style="stroke-width:0.26458332"
         y="212.98067"
         x="62.812958"
         id="tspan29" /></text>
    <g
       style="fill:#1a1a1a;fill-opacity:1"
       transform="matrix(0.11920639,0,0,0.11920639,43.773615,181.84758)"
       id="g2243">
      <g
         style="fill:#1a1a1a;fill-opacity:1"
         id="g2187">
        <path
           style="fill:#1a1a1a;fill-opacity:1"
           d="m 344.035,281.661 c -1.711,-1.811 -3.901,-2.714 -6.564,-2.714 h -46.254 c -2.669,0 -4.859,0.903 -6.57,2.714 -1.711,1.811 -2.566,3.949 -2.566,6.423 v 51.675 H 163.882 V 231.551 h 87.077 c 2.475,0 4.616,-0.904 6.424,-2.711 1.81,-1.807 2.713,-3.949 2.713,-6.424 v -37.404 c 0,-2.667 -0.903,-4.853 -2.713,-6.567 -1.808,-1.709 -3.949,-2.568 -6.424,-2.568 h -87.077 v -61.385 c 0,-14.462 4.947,-26.166 14.844,-35.116 9.9,-8.946 22.936,-13.418 39.113,-13.418 8.566,0 17.419,1.715 26.553,5.142 9.138,3.424 15.704,6.468 19.701,9.136 3.997,2.662 6.476,4.475 7.423,5.424 1.903,1.711 4.09,2.377 6.567,1.999 2.475,-0.193 4.565,-1.333 6.279,-3.428 l 29.407,-36.263 c 1.529,-1.903 2.189,-4.045 1.998,-6.423 -0.191,-2.38 -1.143,-4.328 -2.854,-5.852 C 284.369,11.9 252.485,0 217.271,0 c -36.352,0 -66.286,10.566 -89.792,31.693 -23.507,21.13 -35.26,47.966 -35.26,80.515 v 63.666 H 65.096 c -2.664,0 -4.854,0.859 -6.567,2.568 -1.715,1.712 -2.57,3.899 -2.57,6.567 v 37.401 c 0,2.471 0.855,4.609 2.57,6.42 1.713,1.81 3.903,2.713 6.567,2.713 H 92.219 V 340.889 H 64.525 c -2.474,0 -4.617,0.906 -6.423,2.713 -1.809,1.811 -2.712,3.953 -2.712,6.424 v 42.825 c 0,2.669 0.854,4.853 2.568,6.57 1.713,1.708 3.903,2.566 6.567,2.566 h 272.946 c 2.666,0 4.856,-0.858 6.564,-2.566 1.711,-1.718 2.562,-3.901 2.562,-6.57 V 288.074 c 0.005,-2.468 -0.851,-4.616 -2.562,-6.413 z"
           id="path2185" />
      </g>
      <g
         style="fill:#1a1a1a;fill-opacity:1"
         id="g2189" />
      <g
         style="fill:#1a1a1a;fill-opacity:1"
         id="g2191" />
      <g
         style="fill:#1a1a1a;fill-opacity:1"
         id="g2193" />
      <g
         style="fill:#1a1a1a;fill-opacity:1"
         id="g2195" />
      <g
         style="fill:#1a1a1a;fill-opacity:1"
         id="g2197" />
      <g
         style="fill:#1a1a1a;fill-opacity:1"
         id="g2199" />
      <g
         style="fill:#1a1a1a;fill-opacity:1"
         id="g2201" />
      <g
         style="fill:#1a1a1a;fill-opacity:1"
         id="g2203" />
      <g
         style="fill:#1a1a1a;fill-opacity:1"
         id="g2205" />
      <g
         style="fill:#1a1a1a;fill-opacity:1"
         id="g2207" />
      <g
         style="fill:#1a1a1a;fill-opacity:1"
         id="g2209" />
      <g
         style="fill:#1a1a1a;fill-opacity:1"
         id="g2211" />
      <g
         style="fill:#1a1a1a;fill-opacity:1"
         id="g2213" />
      <g
         style="fill:#1a1a1a;fill-opacity:1"
         id="g2215" />
      <g
         style="fill:#1a1a1a;fill-opacity:1"
         id="g2217" />
    </g>
  </g>
  <g
     id="layer2" />
</svg>
