<?xml version="1.0" encoding="UTF-8" standalone="no"?>
<svg
   xmlns:dc="http://purl.org/dc/elements/1.1/"
   xmlns:cc="http://creativecommons.org/ns#"
   xmlns:rdf="http://www.w3.org/1999/02/22-rdf-syntax-ns#"
   xmlns:svg="http://www.w3.org/2000/svg"
   xmlns="http://www.w3.org/2000/svg"
   id="svg8"
   version="1.1"
   viewBox="0 0 135.46666 135.46667"
   height="512"
   width="512">
  <defs
     id="defs2" />
  <metadata
     id="metadata5">
    <rdf:RDF>
      <cc:Work
         rdf:about="">
        <dc:format>image/svg+xml</dc:format>
        <dc:type
           rdf:resource="http://purl.org/dc/dcmitype/StillImage" />
        <dc:title></dc:title>
      </cc:Work>
    </rdf:RDF>
  </metadata>
  <g
     id="layer1"
     transform="translate(0,-161.53331)">
    <flowRoot
       xml:space="preserve"
       id="flowRoot3750"
       style="font-style:normal;font-weight:normal;font-size:40px;line-height:1.25;font-family:sans-serif;letter-spacing:0px;word-spacing:0px;fill:#000000;fill-opacity:1;stroke:none"
       transform="scale(0.26458333)"><flowRegion
         id="flowRegion3752"><rect
           id="rect3754"
           width="360"
           height="240"
           x="240"
           y="162.51968" /></flowRegion><flowPara
         id="flowPara3756" /></flowRoot>    <circle
       id="path3758"
       cx="67.73333"
       cy="207.94797"
       style="stroke-width:0.5681991;fill:#ec595f;fill-opacity:1"
       r="44.054428" />
    <path
       id="path3764"
       d="m 69.348413,266.14443 c -7.956462,0 -40.143967,-55.75039 -36.165737,-62.64089 3.978231,-6.8905 68.353234,-6.8905 72.331474,0 3.97823,6.89049 -28.209276,62.64089 -36.165737,62.64089 z"
       style="stroke-width:0.26458332;fill:#ec595f;fill-opacity:1"
       transform="matrix(1.1791999,0,0,1.3018639,-14.042307,-51.257701)" />
    <path
       style="fill:#ffffff;stroke-width:0.30096641"
       id="path3772"
       d="m 84.604857,217.08677 c -5.844469,10.12292 -5.18259,9.74078 -16.871527,9.74078 -11.688937,0 -11.027059,0.38214 -16.871528,-9.74078 -5.844468,-10.12291 -5.844468,-9.35864 1e-6,-19.48156 5.844468,-10.12291 5.18259,-9.74078 16.871527,-9.74078 11.688937,0 11.027059,-0.38213 16.871527,9.74078 5.844469,10.12292 5.844469,9.35865 0,19.48156 z"
       transform="matrix(1.3527398,-0.78100465,0.78100465,1.3527398,-185.83043,-20.190331)" />
    <text
       xml:space="preserve"
       style="font-style:normal;font-weight:normal;font-size:10.58333302px;line-height:1.25;font-family:sans-serif;letter-spacing:0px;word-spacing:0px;fill:#000000;fill-opacity:1;stroke:none;stroke-width:0.26458332"
       x="62.086796"
       y="205.14056"
       id="text27"><tspan
         id="tspan25"
         x="62.086796"
         y="214.79607"
         style="stroke-width:0.26458332" /></text>
    <text
       xml:space="preserve"
       style="font-style:normal;font-weight:normal;font-size:10.58333302px;line-height:1.25;font-family:sans-serif;letter-spacing:0px;word-spacing:0px;fill:#000000;fill-opacity:1;stroke:none;stroke-width:0.26458332"
       x="62.812958"
       y="203.32516"
       id="text31"><tspan
         id="tspan29"
         x="62.812958"
         y="212.98067"
         style="stroke-width:0.26458332" /></text>
    <g
       style="fill:#ec595f;fill-opacity:1"
       transform="matrix(0.08320527,0,0,0.08320527,45.688006,185.34956)"
       id="g8440">
      <g
         style="fill:#ec595f;fill-opacity:1"
         id="g8382">
        <g
           style="fill:#ec595f;fill-opacity:1"
           id="g8380">
          <path
             style="fill:#ec595f;fill-opacity:1"
             d="m 21.415,444.532 c 14.277,14.277 31.501,21.416 51.678,21.416 h 365.451 c 20.178,0 37.404,-7.139 51.675,-21.416 14.271,-14.27 21.409,-31.497 21.409,-51.674 H 0 c 0.004,20.177 7.142,37.404 21.415,51.674 z"
             id="path8376" />
          <path
             style="fill:#ec595f;fill-opacity:1"
             d="m 137.046,356.312 h 200.995 c 17.508,0 32.545,-6.279 45.111,-18.842 12.56,-12.563 18.842,-27.601 18.842,-45.111 v -9.134 h 18.268 c 30.266,0 56.11,-10.704 77.52,-32.119 21.408,-21.414 32.12,-47.251 32.12,-77.514 0,-30.267 -10.712,-56.108 -32.12,-77.519 C 476.373,74.662 450.528,63.952 420.262,63.952 H 91.363 c -4.947,0 -9.229,1.812 -12.847,5.424 -3.616,3.617 -5.424,7.902 -5.424,12.85 v 210.131 c 0,17.511 6.28,32.548 18.843,45.111 12.563,12.565 27.6,18.844 45.111,18.844 z M 401.994,118.775 h 18.274 c 15.229,0 28.172,5.33 38.828,15.987 10.656,10.66 15.988,23.601 15.988,38.831 0,15.222 -5.332,28.166 -15.988,38.83 -10.656,10.657 -23.6,15.988 -38.828,15.988 h -18.274 z"
             id="path8378" />
        </g>
      </g>
      <g
         style="fill:#ec595f;fill-opacity:1"
         id="g8384" />
      <g
         style="fill:#ec595f;fill-opacity:1"
         id="g8386" />
      <g
         style="fill:#ec595f;fill-opacity:1"
         id="g8388" />
      <g
         style="fill:#ec595f;fill-opacity:1"
         id="g8390" />
      <g
         style="fill:#ec595f;fill-opacity:1"
         id="g8392" />
      <g
         style="fill:#ec595f;fill-opacity:1"
         id="g8394" />
      <g
         style="fill:#ec595f;fill-opacity:1"
         id="g8396" />
      <g
         style="fill:#ec595f;fill-opacity:1"
         id="g8398" />
      <g
         style="fill:#ec595f;fill-opacity:1"
         id="g8400" />
      <g
         style="fill:#ec595f;fill-opacity:1"
         id="g8402" />
      <g
         style="fill:#ec595f;fill-opacity:1"
         id="g8404" />
      <g
         style="fill:#ec595f;fill-opacity:1"
         id="g8406" />
      <g
         style="fill:#ec595f;fill-opacity:1"
         id="g8408" />
      <g
         style="fill:#ec595f;fill-opacity:1"
         id="g8410" />
      <g
         style="fill:#ec595f;fill-opacity:1"
         id="g8412" />
    </g>
  </g>
  <g
     id="layer2" />
</svg>
