<?xml version="1.0" encoding="UTF-8" standalone="no"?>
<svg
   xmlns:dc="http://purl.org/dc/elements/1.1/"
   xmlns:cc="http://creativecommons.org/ns#"
   xmlns:rdf="http://www.w3.org/1999/02/22-rdf-syntax-ns#"
   xmlns:svg="http://www.w3.org/2000/svg"
   xmlns="http://www.w3.org/2000/svg"
   id="svg8"
   version="1.1"
   viewBox="0 0 135.46666 135.46667"
   height="512"
   width="512">
  <defs
     id="defs2" />
  <metadata
     id="metadata5">
    <rdf:RDF>
      <cc:Work
         rdf:about="">
        <dc:format>image/svg+xml</dc:format>
        <dc:type
           rdf:resource="http://purl.org/dc/dcmitype/StillImage" />
        <dc:title></dc:title>
      </cc:Work>
    </rdf:RDF>
  </metadata>
  <g
     id="layer1"
     transform="translate(0,-161.53331)">
    <flowRoot
       xml:space="preserve"
       id="flowRoot3750"
       style="font-style:normal;font-weight:normal;font-size:40px;line-height:1.25;font-family:sans-serif;letter-spacing:0px;word-spacing:0px;fill:#000000;fill-opacity:1;stroke:none"
       transform="scale(0.26458333)"><flowRegion
         id="flowRegion3752"><rect
           id="rect3754"
           width="360"
           height="240"
           x="240"
           y="162.51968" /></flowRegion><flowPara
         id="flowPara3756" /></flowRoot>    <circle
       id="path3758"
       cx="67.73333"
       cy="207.94797"
       style="stroke-width:0.5681991;fill:#1a1a1a;fill-opacity:1"
       r="44.054428" />
    <path
       id="path3764"
       d="m 69.348413,266.14443 c -7.956462,0 -40.143967,-55.75039 -36.165737,-62.64089 3.978231,-6.8905 68.353234,-6.8905 72.331474,0 3.97823,6.89049 -28.209276,62.64089 -36.165737,62.64089 z"
       style="stroke-width:0.26458332;fill:#1a1a1a;fill-opacity:1"
       transform="matrix(1.1791999,0,0,1.3018639,-14.042307,-51.257701)" />
    <path
       style="fill:#ffffff;stroke-width:0.30096641;fill-opacity:1"
       id="path3772"
       d="m 84.604857,217.08677 c -5.844469,10.12292 -5.18259,9.74078 -16.871527,9.74078 -11.688937,0 -11.027059,0.38214 -16.871528,-9.74078 -5.844468,-10.12291 -5.844468,-9.35864 1e-6,-19.48156 5.844468,-10.12291 5.18259,-9.74078 16.871527,-9.74078 11.688937,0 11.027059,-0.38213 16.871527,9.74078 5.844469,10.12292 5.844469,9.35865 0,19.48156 z"
       transform="matrix(1.3527398,-0.78100465,0.78100465,1.3527398,-185.83043,-20.190331)" />
    <text
       xml:space="preserve"
       style="font-style:normal;font-weight:normal;font-size:10.58333302px;line-height:1.25;font-family:sans-serif;letter-spacing:0px;word-spacing:0px;fill:#000000;fill-opacity:1;stroke:none;stroke-width:0.26458332"
       x="62.086796"
       y="205.14056"
       id="text27"><tspan
         id="tspan25"
         x="62.086796"
         y="214.79607"
         style="stroke-width:0.26458332" /></text>
    <text
       xml:space="preserve"
       style="font-style:normal;font-weight:normal;font-size:10.58333302px;line-height:1.25;font-family:sans-serif;letter-spacing:0px;word-spacing:0px;fill:#000000;fill-opacity:1;stroke:none;stroke-width:0.26458332"
       x="62.812958"
       y="203.32516"
       id="text31"><tspan
         id="tspan29"
         x="62.812958"
         y="212.98067"
         style="stroke-width:0.26458332" /></text>
    <g
       style="fill:#1a1a1a"
       transform="matrix(0.08443565,0,0,0.08443565,46.133631,185.79502)"
       id="g8572">
      <g
         style="fill:#1a1a1a"
         id="g8514">
        <g
           style="fill:#1a1a1a"
           id="g8512">
          <path
             style="fill:#1a1a1a"
             d="m 219.277,0.003 c -4.952,0 -9.235,1.809 -12.85,5.424 C 202.809,9.045 201,13.326 201,18.274 v 118.771 c 0,4.948 -1.809,9.231 -5.424,12.847 -3.621,3.617 -7.898,5.426 -12.85,5.426 -4.952,0 -9.235,-1.809 -12.851,-5.426 -3.617,-3.616 -5.424,-7.898 -5.424,-12.847 V 18.274 c 0,-4.948 -1.809,-9.229 -5.426,-12.847 -3.619,-3.616 -7.902,-5.424 -12.851,-5.424 -4.946,0 -9.229,1.809 -12.847,5.424 -3.615,3.617 -5.424,7.898 -5.424,12.847 v 118.771 c 0,4.948 -1.809,9.231 -5.424,12.847 -3.617,3.617 -7.898,5.426 -12.847,5.426 -4.952,0 -9.235,-1.809 -12.85,-5.426 -3.618,-3.616 -5.426,-7.898 -5.426,-12.847 V 18.274 c 0,-4.948 -1.807,-9.229 -5.424,-12.847 -3.616,-3.616 -7.895,-5.424 -12.847,-5.424 -4.952,0 -9.233,1.809 -12.85,5.424 -3.615,3.617 -5.424,7.898 -5.424,12.847 v 182.725 c 0,11.609 3.374,22.172 10.135,31.689 6.759,9.519 15.562,16.18 26.41,19.985 v 222.411 c 0,9.896 3.617,18.456 10.85,25.693 7.233,7.234 15.8,10.849 25.697,10.849 h 36.543 c 9.898,0 18.462,-3.621 25.697,-10.855 7.233,-7.23 10.848,-15.797 10.848,-25.693 V 252.67 c 10.85,-3.805 19.648,-10.47 26.409,-19.985 6.759,-9.514 10.138,-20.079 10.138,-31.689 V 18.271 c 0,-4.948 -1.809,-9.229 -5.417,-12.843 -3.615,-3.616 -7.894,-5.425 -12.844,-5.425 z"
             id="path8508" />
          <path
             style="fill:#1a1a1a"
             d="M 451.383,5.424 C 447.766,1.809 443.484,0 438.536,0 h -73.087 c -25.125,0 -46.634,8.951 -64.521,26.84 -17.891,17.89 -26.844,39.398 -26.844,64.525 v 228.401 c 0,2.478 0.91,4.613 2.714,6.427 1.811,1.807 3.953,2.711 6.42,2.711 h 63.954 v 146.181 c 0,9.896 3.62,18.456 10.852,25.693 7.23,7.231 15.803,10.849 25.7,10.849 h 36.538 c 9.9,0 18.463,-3.614 25.697,-10.849 7.234,-7.237 10.855,-15.797 10.855,-25.693 V 18.271 C 456.807,13.323 455,9.042 451.383,5.424 Z"
             id="path8510" />
        </g>
      </g>
      <g
         style="fill:#1a1a1a"
         id="g8516" />
      <g
         style="fill:#1a1a1a"
         id="g8518" />
      <g
         style="fill:#1a1a1a"
         id="g8520" />
      <g
         style="fill:#1a1a1a"
         id="g8522" />
      <g
         style="fill:#1a1a1a"
         id="g8524" />
      <g
         style="fill:#1a1a1a"
         id="g8526" />
      <g
         style="fill:#1a1a1a"
         id="g8528" />
      <g
         style="fill:#1a1a1a"
         id="g8530" />
      <g
         style="fill:#1a1a1a"
         id="g8532" />
      <g
         style="fill:#1a1a1a"
         id="g8534" />
      <g
         style="fill:#1a1a1a"
         id="g8536" />
      <g
         style="fill:#1a1a1a"
         id="g8538" />
      <g
         style="fill:#1a1a1a"
         id="g8540" />
      <g
         style="fill:#1a1a1a"
         id="g8542" />
      <g
         style="fill:#1a1a1a"
         id="g8544" />
    </g>
  </g>
  <g
     id="layer2" />
</svg>
